<?xml version="1.0" encoding="UTF-8"?>
<!DOCTYPE svg PUBLIC "-//W3C//DTD SVG 1.1//EN" "http://www.w3.org/Graphics/SVG/1.1/DTD/svg11.dtd">
<!-- Creator: CorelDRAW -->
<svg xmlns="http://www.w3.org/2000/svg" xml:space="preserve" width="45.7929mm" height="28.4734mm" style="shape-rendering:geometricPrecision; text-rendering:geometricPrecision; image-rendering:optimizeQuality; fill-rule:evenodd; clip-rule:evenodd"
viewBox="0 0 13.2843 8.25997"
 xmlns:xlink="http://www.w3.org/1999/xlink">
 <defs>
  <style type="text/css">
   <![CDATA[
    .fil2 {fill:black}
    .fil3 {fill:#600000}
    .fil0 {fill:gray}
    .fil1 {fill:white}
   ]]>
  </style>
 </defs>
 <g id="Layer_x0020_1">
  <metadata id="CorelCorpID_0Corel-Layer"/>
  <g id="_334856192">
   <rect id="_176863376" class="fil0" width="13.2843" height="8.25996"/>
   <polygon id="_176862776" class="fil1" points="13.2843,0 13.2843,8.25994 0,8.25994 0.36227,7.87362 12.9273,0.393107 "/>
   <rect id="_170416656" class="fil2" x="0.331581" y="0.381766" width="12.6211" height="7.49642"/>
   <g>
    <rect id="_170420856" class="fil2" x="9.05245" y="0.679191" width="3.6074" height="6.90156"/>
    <polygon id="_170420784" class="fil3" points="9.17789,0.679894 10.1732,1.65493 11.5512,1.6549 12.5344,0.679198 "/>
    <polygon id="_170420712" class="fil3" points="9.17789,7.58005 10.1732,6.60501 11.5512,6.60507 12.5344,7.58075 "/>
    <g>
     <polygon id="_170420640" class="fil3" points="12.6591,7.48652 11.6841,6.49118 11.6842,5.11326 12.6599,4.12999 "/>
     <polygon id="_170420568" class="fil3" points="12.6591,4.12993 11.6841,3.13459 11.6842,1.75667 12.6599,0.773392 "/>
    </g>
    <g>
     <polygon id="_170420472" class="fil3" points="9.05315,7.48652 10.0282,6.49118 10.0282,5.11326 9.05245,4.12999 "/>
     <polygon id="_170420400" class="fil3" points="9.05315,4.12993 10.0282,3.13459 10.0282,1.75667 9.05245,0.773392 "/>
    </g>
    <polygon id="_170420304" class="fil3" points="9.17789,4.10614 10.1732,4.67238 11.5512,4.67235 12.5343,4.10579 12.5344,4.10579 12.5344,4.10576 12.5344,4.10573 12.5343,4.10573 11.5512,3.53921 10.1732,3.53915 9.17789,4.10542 12.3106,4.10576 "/>
   </g>
   <g>
    <rect id="_176863136" class="fil2" x="4.85048" y="0.679191" width="3.6074" height="6.90156"/>
    <polygon id="_176863016" class="fil3" points="4.97593,0.679894 5.97124,1.65493 7.34919,1.6549 8.33244,0.679198 "/>
    <polygon id="_176862152" class="fil3" points="4.97593,7.58005 5.97124,6.60501 7.34919,6.60507 8.33244,7.58075 "/>
    <g>
     <polygon id="_176862176" class="fil3" points="8.45718,7.48652 7.48214,6.49118 7.48217,5.11326 8.45787,4.12999 "/>
     <polygon id="_176862944" class="fil3" points="8.45718,4.12993 7.48214,3.13459 7.48217,1.75667 8.45787,0.773392 "/>
    </g>
    <g>
     <polygon id="_176862800" class="fil3" points="4.85119,7.48652 5.82623,6.49118 5.82617,5.11326 4.85046,4.12999 "/>
     <polygon id="_176863064" class="fil3" points="4.85119,4.12993 5.82623,3.13459 5.82617,1.75667 4.85046,0.773392 "/>
    </g>
    <polygon id="_176862584" class="fil3" points="4.97593,4.10614 5.97124,4.67238 7.34919,4.67235 8.33235,4.10579 8.33244,4.10579 8.33238,4.10576 8.33244,4.10573 8.33235,4.10573 7.34919,3.53921 5.97124,3.53915 4.97593,4.10542 8.10866,4.10576 "/>
   </g>
   <g>
    <rect id="_176863424" class="fil2" x="0.648497" y="0.679191" width="3.6074" height="6.90156"/>
    <polygon id="_176863520" class="fil3" points="0.773943,0.679894 1.76929,1.65493 3.1472,1.6549 4.13045,0.679198 "/>
    <polygon id="_176863616" class="fil3" points="0.773943,7.58005 1.76929,6.60501 3.1472,6.60507 4.13045,7.58075 "/>
    <g>
     <polygon id="_176863760" class="fil3" points="4.25519,7.48652 3.28015,6.49118 3.28021,5.11326 4.25589,4.12999 "/>
     <polygon id="_176863856" class="fil3" points="4.25519,4.12993 3.28015,3.13459 3.28021,1.75667 4.25589,0.773392 "/>
    </g>
    <g>
     <polygon id="_176863976" class="fil3" points="0.649202,7.48652 1.62424,6.49118 1.62418,5.11326 0.648506,4.12999 "/>
     <polygon id="_176864072" class="fil3" points="0.649202,4.12993 1.62424,3.13459 1.62418,1.75667 0.648506,0.773392 "/>
    </g>
    <polygon id="_176863952" class="fil3" points="0.773943,4.10614 1.76929,4.67238 3.1472,4.67235 4.13036,4.10579 4.13045,4.10579 4.13039,4.10576 4.13045,4.10573 4.13036,4.10573 3.1472,3.53921 1.76929,3.53915 0.773943,4.10542 3.90667,4.10576 "/>
   </g>
  </g>
 </g>
</svg>
